# xmcd
#
# Track frame offsets: 
#        150
#        18325
#        30126
#        54063
#        71562
#        87852
#        101027
#        130586
#
# Disc length: 2016 seconds
#
# Revision: 0
# Processed by: cddbd v1.5.2PL0 Copyright (c) Steve Scherf et al.
# Submitted via: ExactAudioCopyFreeDBPlugin 1.0
#
DISCID=5207de08
DTITLE=Jessie Gordon - Jessie Gordon
DYEAR=2016
DGENRE=Blues
TTITLE0=Lullaby of Birdland
TTITLE1=But Not For Me
TTITLE2=Billy Jean
TTITLE3=Honeysuckle Rose
TTITLE4=I Love Being Here With You
TTITLE5=Joshua Fit the Battle
TTITLE6=Long John Blues
TTITLE7=Embraceable You
EXTD=
EXTT0=
EXTT1=
EXTT2=
EXTT3=
EXTT4=
EXTT5=
EXTT6=
EXTT7=
PLAYORDER=
